<?xml version="1.0" standalone="no"?><!DOCTYPE svg PUBLIC "-//W3C//DTD SVG 1.1//EN" "http://www.w3.org/Graphics/SVG/1.1/DTD/svg11.dtd"><svg t="1670927516052" class="icon" viewBox="0 0 1024 1024" version="1.1" xmlns="http://www.w3.org/2000/svg" p-id="2790" xmlns:xlink="http://www.w3.org/1999/xlink" width="128" height="128"><path d="M754.164535 494.012641a260.603459 260.603459 0 0 0-234.161791 376.304572H165.574011a73.404478 73.404478 0 0 1-73.404478-73.253957v-632.19168A73.404478 73.404478 0 0 1 165.574011 91.868489h395.671714v100.949973A153.532265 153.532265 0 0 0 714.52712 346.200206h122.92616v88.807879a40.139154 40.139154 0 0 0 80.278309 0V309.071488a95.932579 95.932579 0 0 0-28.548973-68.236562l-200.695772-200.695772a96.083101 96.083101 0 0 0-68.437258-28.298103H165.574011A153.482091 153.482091 0 0 0 11.941398 165.122446v632.19168A153.482091 153.482091 0 0 0 165.574011 950.244304h415.992161a260.904503 260.904503 0 1 0 172.799059-456.231663zM801.378215 265.921897h-86.851095a73.404478 73.404478 0 0 1-73.404478-73.30413V106.117889z m-47.21368 669.47092a180.626194 180.626194 0 1 1 181.178108-180.626194 181.228282 181.228282 0 0 1-181.178108 180.82689z" fill="#212936" p-id="2791"></path><path d="M225.782743 577.000343a40.139154 40.139154 0 1 0 0 79.876917h104.512323a40.139154 40.139154 0 1 0 0-79.876917zM492.908815 441.932089a40.139154 40.139154 0 1 0 0-79.927091H225.782743a40.139154 40.139154 0 1 0 0 79.876917zM850.398158 658.683522a35.12176 35.12176 0 0 0-49.521682 0l-46.711941 46.661767-46.762114-46.661767a35.12176 35.12176 0 1 0-49.521682 49.421334l46.762115 46.661767-46.762115 46.611592a35.12176 35.12176 0 0 0 49.521682 49.421334l46.762114-46.611593 46.711941 46.611593a35.12176 35.12176 0 0 0 49.521682-49.421334l-46.711941-46.611592 46.711941-46.661767a35.12176 35.12176 0 0 0 0-49.421334z" fill="#212936" p-id="2792"></path></svg>