<svg width="20" height="20" viewBox="0 0 20 20" fill="none" xmlns="http://www.w3.org/2000/svg">
<rect width="20" height="20" rx="3" fill="white"/>
<path d="M5.471 14.324C5.575 14.714 5.77 14.935 5.991 14.935C6.303 14.935 6.498 14.714 6.576 13.921L7.005 9.891H3.742L4.899 4.405H5.38C7.564 4.262 9.527 3.937 11.503 3.443L11.776 4.535C9.995 5.055 7.941 5.406 5.835 5.549L5.159 8.734H7.122L7.382 6.277H8.539L8.279 8.734H11.334L11.217 9.891H8.162L7.72 14.09C7.59 15.364 7.109 16.053 6.121 16.053C5.328 16.053 4.704 15.572 4.483 14.532L5.471 14.324ZM3.521 15.364L2.546 14.662C3.443 13.453 4.041 12.14 4.535 10.749L5.588 11.165C5.12 12.608 4.522 13.999 3.521 15.364ZM10.021 10.84C10.411 12.387 10.801 13.713 11.23 14.818L10.151 15.286C9.67 13.882 9.28 12.53 8.929 11.152L10.021 10.84Z" fill="#212937"/>
<path d="M16.5 0.5V3.79297L15.5 2.79297L14.5 3.79297V0.5H16.5Z" fill="#212937" stroke="#212937"/>
</svg>
