<svg width="105" height="28" viewBox="0 0 105 28" fill="none" xmlns="http://www.w3.org/2000/svg">
<rect width="105" height="28" fill="#212937"/>
<path d="M9.272 11.98H10.1V19.96H9.272V11.98ZM11.78 15.676H12.596V19.408H11.78V15.676ZM12.152 15.676H16.244V18.976H12.152V18.4H15.44V16.264H12.152V15.676ZM9.692 11.98H13.484V15.076H9.692V14.476H12.668V12.58H9.692V11.98ZM9.728 13.24H12.956V13.804H9.728V13.24ZM12.164 17.032H15.824V17.596H12.164V17.032ZM14.996 13.24H18.344V13.804H14.996V13.24ZM18.236 11.98V12.58H15.332V14.476H18.236V15.076H14.504V11.98H18.236ZM18.02 11.98H18.86V18.928C18.86 19.432 18.752 19.684 18.404 19.816C18.056 19.948 17.456 19.96 16.556 19.96C16.52 19.732 16.388 19.384 16.28 19.144C16.952 19.18 17.576 19.168 17.768 19.168C17.96 19.156 18.02 19.096 18.02 18.928V11.98ZM9.956 9.856H13.832V10.564H9.956V9.856ZM14.648 9.856H19.364V10.564H14.648V9.856ZM10.184 8.872L11.036 9.088C10.592 10.144 9.884 11.176 9.188 11.848C9.02 11.716 8.66 11.464 8.444 11.356C9.164 10.732 9.812 9.808 10.184 8.872ZM14.948 8.872L15.812 9.076C15.38 10.132 14.6 11.116 13.844 11.752C13.664 11.62 13.28 11.404 13.064 11.296C13.856 10.708 14.576 9.82 14.948 8.872ZM10.628 10.432L11.384 10.228C11.66 10.636 11.948 11.2 12.068 11.56L11.276 11.788C11.168 11.428 10.892 10.852 10.628 10.432ZM15.764 10.42L16.532 10.18C16.904 10.588 17.312 11.164 17.492 11.56L16.7 11.824C16.532 11.44 16.136 10.852 15.764 10.42ZM23.252 9.664H26.696V16.828H23.252V15.988H25.856V10.492H23.252V9.664ZM23.264 12.772H26.216V13.588H23.264V12.772ZM28.328 9.436H32.372V10.276H28.328V9.436ZM28.328 12.352H32.372V13.18H28.328V12.352ZM28.256 15.304H32.348V16.12H28.256V15.304ZM22.76 9.664H23.6V17.944H22.76V9.664ZM32.036 9.436H32.936V18.784C32.936 19.348 32.792 19.624 32.408 19.78C32.024 19.924 31.364 19.936 30.332 19.936C30.284 19.696 30.14 19.3 30.008 19.06C30.776 19.084 31.532 19.072 31.748 19.072C31.964 19.06 32.036 18.988 32.036 18.772V9.436ZM27.8 9.436H28.688V13.72C28.688 15.736 28.388 18.388 26.228 20.044C26.096 19.864 25.76 19.552 25.568 19.432C27.596 17.872 27.8 15.592 27.8 13.72V9.436ZM36.932 10.024H46.352V10.828H36.932V10.024ZM36.248 12.832H46.952V13.648H36.248V12.832ZM38.456 16.72H44.816V17.44H38.456V16.72ZM38.468 18.76H44.828V19.528H38.468V18.76ZM41.108 8.92H42.044V10.468H41.108V8.92ZM38.012 14.692H45.344V19.948H44.408V15.46H38.912V19.972H38.012V14.692ZM43.808 10.792L44.78 11.032C44.468 11.692 44.108 12.424 43.808 12.904L42.968 12.676C43.268 12.16 43.628 11.356 43.808 10.792ZM38.588 11.032L39.452 10.84C39.824 11.404 40.136 12.16 40.232 12.664L39.308 12.904C39.224 12.376 38.924 11.596 38.588 11.032ZM50.072 15.784H60.728V16.588H50.072V15.784ZM54.908 14.668H55.82V19.936H54.908V14.668ZM54.5 16.096L55.244 16.432C54.152 17.884 52.196 19.168 50.444 19.804C50.3 19.576 50.036 19.228 49.832 19.048C51.584 18.508 53.516 17.368 54.5 16.096ZM56.24 16.12C57.212 17.368 59.132 18.46 60.956 18.952C60.764 19.132 60.488 19.48 60.356 19.72C58.532 19.12 56.576 17.896 55.484 16.48L56.24 16.12ZM54.44 12.796V14.116H56.324V12.796H54.44ZM54.44 10.816V12.112H56.324V10.816H54.44ZM53.66 10.108H57.116V14.824H53.66V10.108ZM55.064 8.92L55.964 9.064C55.772 9.604 55.568 10.18 55.388 10.564L54.68 10.408C54.824 9.988 54.992 9.352 55.064 8.92ZM50.156 11.26L50.552 10.684C51.164 11.14 51.884 11.812 52.196 12.268L51.776 12.928C51.464 12.448 50.756 11.752 50.156 11.26ZM52.34 13.024L52.94 12.832C53.3 13.504 53.648 14.404 53.756 14.956L53.12 15.208C53.024 14.632 52.688 13.708 52.34 13.024ZM52.64 10.672L53.348 10.948C52.712 12.136 51.86 13.588 51.164 14.512L50.576 14.236C51.272 13.3 52.148 11.764 52.64 10.672ZM51.704 9.004L52.424 9.268C52.064 10.048 51.632 10.96 51.26 11.56L50.66 11.296C51.008 10.684 51.464 9.7 51.704 9.004ZM50.048 14.164C50.864 14.092 51.992 13.96 53.18 13.828L53.192 14.476C52.088 14.656 51.02 14.8 50.144 14.944L50.048 14.164ZM57.044 11.164L57.5 10.612C58.124 11.14 58.856 11.896 59.18 12.4L58.712 13.024C58.4 12.496 57.68 11.716 57.044 11.164ZM59.276 12.928L59.9 12.7C60.32 13.432 60.74 14.416 60.872 15.028L60.2 15.304C60.08 14.668 59.684 13.684 59.276 12.928ZM59.576 10.66L60.284 10.948C59.648 12.136 58.772 13.6 58.052 14.536L57.464 14.26C58.172 13.312 59.084 11.764 59.576 10.66ZM58.7 8.968L59.432 9.232C59.06 10.024 58.616 10.924 58.232 11.524L57.632 11.26C57.992 10.648 58.46 9.664 58.7 8.968ZM57.092 14.164C57.932 14.092 59.072 13.984 60.26 13.876L60.272 14.536C59.168 14.68 58.076 14.824 57.2 14.944L57.092 14.164ZM68.9 12.532V14.08H73.364V12.532H68.9ZM68.9 10.264V11.788H73.364V10.264H68.9ZM68.084 9.484H74.228V14.86H68.084V9.484ZM67.928 16.264H74.396V17.092H67.928V16.264ZM67.004 18.748H74.792V19.564H67.004V18.748ZM63.74 9.736H67.484V10.588H63.74V9.736ZM63.872 13.204H67.316V14.056H63.872V13.204ZM63.62 17.8C64.592 17.536 66.032 17.068 67.424 16.6L67.58 17.464C66.272 17.908 64.904 18.364 63.836 18.724L63.62 17.8ZM65.24 10.072H66.104V17.512L65.24 17.68V10.072ZM70.736 9.856H71.528V14.476H71.588V19.12H70.676V14.476H70.736V9.856ZM84.92 9.784C84.26 10.888 83.036 12.22 81.716 13.072C81.62 12.856 81.416 12.532 81.248 12.34C82.568 11.536 83.852 10.132 84.464 8.956H85.304C86.132 10.216 87.452 11.488 88.664 12.184C88.496 12.4 88.292 12.724 88.16 12.964C86.972 12.184 85.652 10.888 84.92 9.784ZM82.028 14.032H87.728V14.788H82.796V19.936H82.028V14.032ZM87.188 14.032H87.98V19.096C87.98 19.468 87.92 19.684 87.668 19.804C87.428 19.936 87.068 19.948 86.552 19.948C86.528 19.744 86.42 19.432 86.312 19.228C86.66 19.24 86.948 19.24 87.056 19.228C87.164 19.228 87.188 19.192 87.188 19.084V14.032ZM83.804 14.248H84.44V19.792H83.804V14.248ZM85.472 14.248H86.12V19.792H85.472V14.248ZM82.916 12.232H87.044V12.988H82.916V12.232ZM82.388 16.492H87.656V17.236H82.388V16.492ZM77.972 12.556H81.212V13.276H77.972V12.556ZM78.032 9.352H81.164V10.072H78.032V9.352ZM77.972 14.164H81.212V14.884H77.972V14.164ZM77.456 10.924H81.56V11.668H77.456V10.924ZM78.392 15.784H81.212V19.276H78.392V18.532H80.456V16.528H78.392V15.784ZM77.948 15.784H78.716V19.84H77.948V15.784Z" fill="white"/>
<path d="M94 9V0H100V9L97 5.14286L94 9Z" fill="white"/>
</svg>
