<svg width="26" height="20" viewBox="0 0 26 20" fill="none" xmlns="http://www.w3.org/2000/svg">
<rect width="26" height="20" fill="white"/>
<path d="M2.784 11.248V12.186H15.216V11.248H2.784ZM8.426 9.946V16.092H9.49V9.946H8.426ZM7.95 11.612C6.802 13.096 4.548 14.426 2.504 15.056C2.742 15.266 3.05 15.672 3.218 15.938C5.262 15.196 7.544 13.698 8.818 12.004L7.95 11.612ZM9.98 11.64L9.098 12.06C10.372 13.712 12.654 15.14 14.782 15.84C14.936 15.56 15.258 15.154 15.482 14.944C13.354 14.37 11.114 13.096 9.98 11.64ZM7.88 7.762H10.078V9.302H7.88V7.762ZM7.88 5.452H10.078V6.964H7.88V5.452ZM6.97 4.626V10.128H11.002V4.626H6.97ZM8.608 3.24C8.524 3.744 8.328 4.486 8.16 4.976L8.986 5.158C9.196 4.71 9.434 4.038 9.658 3.408L8.608 3.24ZM2.882 5.97C3.582 6.544 4.408 7.356 4.772 7.916L5.262 7.146C4.898 6.614 4.058 5.83 3.344 5.298L2.882 5.97ZM5.43 8.028C5.836 8.826 6.228 9.904 6.34 10.576L7.082 10.282C6.956 9.638 6.55 8.588 6.13 7.804L5.43 8.028ZM5.78 5.284C5.206 6.558 4.184 8.35 3.372 9.442L4.058 9.764C4.87 8.686 5.864 6.992 6.606 5.606L5.78 5.284ZM4.688 3.338C4.408 4.15 3.876 5.298 3.47 6.012L4.17 6.32C4.604 5.62 5.108 4.556 5.528 3.646L4.688 3.338ZM2.756 9.358L2.868 10.268C3.89 10.1 5.136 9.932 6.424 9.722L6.41 8.966C5.024 9.12 3.708 9.274 2.756 9.358ZM10.918 5.858C11.66 6.502 12.5 7.412 12.864 8.028L13.41 7.3C13.032 6.712 12.178 5.83 11.45 5.214L10.918 5.858ZM13.522 7.916C13.998 8.798 14.46 9.946 14.6 10.688L15.384 10.366C15.23 9.652 14.74 8.504 14.25 7.65L13.522 7.916ZM13.872 5.27C13.298 6.558 12.234 8.364 11.408 9.47L12.094 9.792C12.934 8.7 13.956 6.992 14.698 5.606L13.872 5.27ZM12.85 3.296C12.57 4.108 12.024 5.256 11.604 5.97L12.304 6.278C12.752 5.578 13.27 4.528 13.704 3.604L12.85 3.296ZM10.974 9.358L11.1 10.268C12.122 10.128 13.396 9.96 14.684 9.792L14.67 9.022C13.284 9.148 11.954 9.274 10.974 9.358Z" fill="black"/>
<path d="M18 8V0H24V8L21 4.57143L18 8Z" fill="#212937"/>
</svg>
