<svg width="105" height="28" viewBox="0 0 105 28" fill="none" xmlns="http://www.w3.org/2000/svg">
<!-- <rect width="105" height="28" fill="white"/> -->
<path d="M11.048 9.556H17.3V10.432H11.048V9.556ZM11.048 12.448H17.36V13.3H11.048V12.448ZM10.952 15.34H17.3V16.216H10.952V15.34ZM10.484 9.556H11.396V13.252C11.396 13.772 11.368 14.328 11.312 14.92C11.264 15.512 11.16 16.112 11 16.72C10.84 17.32 10.6 17.9 10.28 18.46C9.968 19.02 9.552 19.524 9.032 19.972C8.992 19.908 8.928 19.832 8.84 19.744C8.76 19.656 8.676 19.572 8.588 19.492C8.5 19.42 8.42 19.364 8.348 19.324C8.836 18.892 9.22 18.428 9.5 17.932C9.788 17.428 10 16.908 10.136 16.372C10.28 15.836 10.372 15.304 10.412 14.776C10.46 14.24 10.484 13.732 10.484 13.252V9.556ZM16.904 9.556H17.852V18.628C17.852 18.948 17.804 19.192 17.708 19.36C17.612 19.528 17.452 19.652 17.228 19.732C16.996 19.812 16.672 19.86 16.256 19.876C15.84 19.9 15.312 19.912 14.672 19.912C14.656 19.816 14.624 19.712 14.576 19.6C14.536 19.488 14.488 19.372 14.432 19.252C14.384 19.14 14.336 19.044 14.288 18.964C14.624 18.972 14.944 18.98 15.248 18.988C15.56 18.988 15.828 18.988 16.052 18.988C16.284 18.98 16.444 18.976 16.532 18.976C16.676 18.968 16.772 18.94 16.82 18.892C16.876 18.836 16.904 18.744 16.904 18.616V9.556ZM25.388 11.38H30.188V12.076H25.388V11.38ZM27.8 9.688C27.456 10.048 27.02 10.416 26.492 10.792C25.972 11.168 25.4 11.528 24.776 11.872C24.152 12.208 23.512 12.508 22.856 12.772C22.808 12.668 22.736 12.544 22.64 12.4C22.544 12.256 22.452 12.136 22.364 12.04C23.036 11.808 23.688 11.52 24.32 11.176C24.952 10.832 25.528 10.468 26.048 10.084C26.576 9.692 27 9.312 27.32 8.944H28.184C28.624 9.352 29.124 9.744 29.684 10.12C30.252 10.488 30.844 10.816 31.46 11.104C32.084 11.392 32.696 11.632 33.296 11.824C33.2 11.92 33.1 12.04 32.996 12.184C32.9 12.328 32.816 12.46 32.744 12.58C32.184 12.372 31.596 12.116 30.98 11.812C30.364 11.5 29.776 11.16 29.216 10.792C28.664 10.424 28.192 10.056 27.8 9.688ZM25.076 13.468V14.608H30.464V13.468H25.076ZM24.26 12.808H31.316V15.256H24.26V12.808ZM22.34 18.82H33.272V19.624H22.34V18.82ZM23.696 16.06H31.952V19.24H31.064V16.792H29.432V19.24H28.592V16.792H26.984V19.24H26.144V16.792H24.548V19.24H23.696V16.06Z" fill="black"/>
<path d="M38.3636 10.2727H38.6023L42.1648 18.5909H42.1989L45.7614 10.2727H46V19H45.7273V11.125H45.6932L42.3182 19H42.0455L38.6705 11.125H38.6364V19H38.3636V10.2727ZM51.4366 19.1364C50.9224 19.1364 50.4608 18.9886 50.0517 18.6932C49.6426 18.3949 49.3188 17.9901 49.0801 17.4787C48.8443 16.9645 48.7264 16.3864 48.7264 15.7443C48.7264 15.0994 48.8443 14.5213 49.0801 14.0099C49.3188 13.4986 49.6426 13.0952 50.0517 12.7997C50.4608 12.5014 50.9224 12.3523 51.4366 12.3523C51.9509 12.3523 52.4111 12.5014 52.8173 12.7997C53.2264 13.098 53.5503 13.5028 53.7889 14.0142C54.0276 14.5256 54.1469 15.1023 54.1469 15.7443C54.1469 16.3864 54.0276 16.9645 53.7889 17.4787C53.5531 17.9901 53.2307 18.3949 52.8216 18.6932C52.4125 18.9886 51.9509 19.1364 51.4366 19.1364ZM51.4366 18.8636C51.8997 18.8636 52.3145 18.7273 52.681 18.4545C53.0503 18.1818 53.3415 17.8097 53.5545 17.3381C53.7676 16.8665 53.8741 16.3352 53.8741 15.7443C53.8741 15.1534 53.7662 14.6236 53.5503 14.1548C53.3372 13.6832 53.0474 13.3111 52.681 13.0384C52.3145 12.7628 51.8997 12.625 51.4366 12.625C50.9764 12.625 50.5616 12.7628 50.1923 13.0384C49.8259 13.3111 49.5347 13.6832 49.3188 14.1548C49.1057 14.6236 48.9991 15.1534 48.9991 15.7443C48.9991 16.3352 49.1057 16.8665 49.3188 17.3381C49.5318 17.8097 49.8216 18.1818 50.1881 18.4545C50.5574 18.7273 50.9736 18.8636 51.4366 18.8636ZM58.9859 19.1364C58.4717 19.1364 58.01 18.9886 57.6009 18.6932C57.1918 18.3949 56.868 17.9901 56.6293 17.4787C56.3935 16.9645 56.2756 16.3864 56.2756 15.7443C56.2756 15.0994 56.3935 14.5213 56.6293 14.0099C56.868 13.4986 57.1918 13.0952 57.6009 12.7997C58.01 12.5014 58.4717 12.3523 58.9859 12.3523C59.5001 12.3523 59.9603 12.5014 60.3665 12.7997C60.7756 13.098 61.0995 13.5028 61.3381 14.0142C61.5768 14.5256 61.6961 15.1023 61.6961 15.7443C61.6961 16.3864 61.5768 16.9645 61.3381 17.4787C61.1023 17.9901 60.7799 18.3949 60.3708 18.6932C59.9617 18.9886 59.5001 19.1364 58.9859 19.1364ZM58.9859 18.8636C59.4489 18.8636 59.8637 18.7273 60.2302 18.4545C60.5995 18.1818 60.8907 17.8097 61.1038 17.3381C61.3168 16.8665 61.4234 16.3352 61.4234 15.7443C61.4234 15.1534 61.3154 14.6236 61.0995 14.1548C60.8864 13.6832 60.5967 13.3111 60.2302 13.0384C59.8637 12.7628 59.4489 12.625 58.9859 12.625C58.5256 12.625 58.1109 12.7628 57.7415 13.0384C57.3751 13.3111 57.0839 13.6832 56.868 14.1548C56.6549 14.6236 56.5484 15.1534 56.5484 15.7443C56.5484 16.3352 56.6549 16.8665 56.868 17.3381C57.081 17.8097 57.3708 18.1818 57.7373 18.4545C58.1066 18.7273 58.5228 18.8636 58.9859 18.8636ZM64.4896 14.6023V19H64.2169V12.4545H64.4896V13.4943H64.5237C64.6771 13.1534 64.9286 12.8807 65.278 12.6761C65.6303 12.4716 66.0322 12.3693 66.4839 12.3693C66.9214 12.3693 67.3078 12.4645 67.643 12.6548C67.9783 12.8452 68.2411 13.108 68.4314 13.4432C68.6217 13.7784 68.7169 14.1648 68.7169 14.6023V19H68.4442V14.6023C68.4442 14.0227 68.2624 13.5511 67.8987 13.1875C67.5351 12.8239 67.0635 12.642 66.4839 12.642C66.0976 12.642 65.7538 12.7259 65.4527 12.8935C65.1544 13.0611 64.9186 13.2926 64.7453 13.5881C64.5749 13.8835 64.4896 14.2216 64.4896 14.6023ZM71.8418 19V10.2727H74.569C75.0577 10.2727 75.4753 10.3622 75.8219 10.5412C76.1713 10.7173 76.4384 10.9716 76.623 11.304C76.8105 11.6335 76.9043 12.0284 76.9043 12.4886C76.9043 12.8295 76.8517 13.1435 76.7466 13.4304C76.6443 13.7173 76.4938 13.9588 76.2949 14.1548C76.096 14.348 75.856 14.4801 75.5747 14.5511V14.5852C75.8901 14.6108 76.1741 14.7202 76.427 14.9134C76.6798 15.1065 76.8787 15.3622 77.0236 15.6804C77.1713 15.9986 77.2452 16.3608 77.2452 16.767C77.2452 17.2159 77.15 17.608 76.9597 17.9432C76.7722 18.2784 76.4994 18.5384 76.1415 18.723C75.7864 18.9077 75.3588 19 74.8588 19H71.8418ZM72.1145 18.7273H74.8588C75.498 18.7273 76.0094 18.5483 76.3929 18.1903C76.7793 17.8295 76.9724 17.3551 76.9724 16.767C76.9724 16.3636 76.8815 16.0071 76.6997 15.6974C76.5179 15.3878 76.2679 15.1449 75.9497 14.9688C75.6344 14.7926 75.2707 14.7045 74.8588 14.7045H72.1145V18.7273ZM72.1145 14.4318H74.8588C75.2565 14.4318 75.5861 14.3423 75.8474 14.1634C76.1088 13.9844 76.3048 13.7472 76.4355 13.4517C76.5662 13.1562 76.6315 12.8352 76.6315 12.4886C76.6315 11.8693 76.4469 11.3906 76.0776 11.0526C75.7082 10.7145 75.2054 10.5455 74.569 10.5455H72.1145V14.4318ZM82.2429 19.1364C81.7287 19.1364 81.267 18.9886 80.858 18.6932C80.4489 18.3949 80.125 17.9901 79.8864 17.4787C79.6506 16.9645 79.5327 16.3864 79.5327 15.7443C79.5327 15.0994 79.6506 14.5213 79.8864 14.0099C80.125 13.4986 80.4489 13.0952 80.858 12.7997C81.267 12.5014 81.7287 12.3523 82.2429 12.3523C82.7571 12.3523 83.2173 12.5014 83.6236 12.7997C84.0327 13.098 84.3565 13.5028 84.5952 14.0142C84.8338 14.5256 84.9531 15.1023 84.9531 15.7443C84.9531 16.3864 84.8338 16.9645 84.5952 17.4787C84.3594 17.9901 84.0369 18.3949 83.6278 18.6932C83.2188 18.9886 82.7571 19.1364 82.2429 19.1364ZM82.2429 18.8636C82.706 18.8636 83.1207 18.7273 83.4872 18.4545C83.8565 18.1818 84.1477 17.8097 84.3608 17.3381C84.5739 16.8665 84.6804 16.3352 84.6804 15.7443C84.6804 15.1534 84.5724 14.6236 84.3565 14.1548C84.1435 13.6832 83.8537 13.3111 83.4872 13.0384C83.1207 12.7628 82.706 12.625 82.2429 12.625C81.7827 12.625 81.3679 12.7628 80.9986 13.0384C80.6321 13.3111 80.3409 13.6832 80.125 14.1548C79.9119 14.6236 79.8054 15.1534 79.8054 15.7443C79.8054 16.3352 79.9119 16.8665 80.125 17.3381C80.3381 17.8097 80.6278 18.1818 80.9943 18.4545C81.3636 18.7273 81.7798 18.8636 82.2429 18.8636ZM87.1192 12.4545L89.0453 15.4801L90.9714 12.4545H91.2953L89.2072 15.7273L91.2953 19H90.9714L89.0453 15.9744L87.1192 19H86.7953L88.8834 15.7273L86.7953 12.4545H87.1192Z" fill="black"/>
<path d="M94 9V0H100V9L97 5.14286L94 9Z" fill="#212937"/>
</svg>
